<?xml version="1.0" encoding="UTF-8"?>
<svg xmlns="http://www.w3.org/2000/svg" version="1.1" width="500" height="500" viewBox="0 0 500 500">
  <rect x="0" y="0" width="500" height="500" fill="#ffffff" />
  <g transform="scale(17.241)">
    <g transform="translate(0,0)">
      <defs>
        <linearGradient gradientUnits="userSpaceOnUse" x1="0" y1="0" x2="29" y2="29" id="g1">
          <stop offset="0%" stop-color="#000" />
          <stop offset="100%" stop-color="#a0a0a0" />
        </linearGradient>
      </defs>
      <path fill-rule="evenodd"
        d="M9 0L9 1L10 1L10 2L8 2L8 3L9 3L9 4L10 4L10 5L9 5L9 6L8 6L8 8L4 8L4 9L3 9L3 8L0 8L0 9L3 9L3 10L1 10L1 11L0 11L0 13L1 13L1 12L3 12L3 13L2 13L2 14L3 14L3 13L4 13L4 14L5 14L5 13L8 13L8 14L9 14L9 15L7 15L7 14L6 14L6 15L7 15L7 16L6 16L6 17L5 17L5 18L3 18L3 19L1 19L1 18L0 18L0 19L1 19L1 20L0 20L0 21L1 21L1 20L3 20L3 21L8 21L8 25L9 25L9 26L8 26L8 29L9 29L9 26L10 26L10 28L12 28L12 29L13 29L13 28L12 28L12 27L11 27L11 26L12 26L12 24L14 24L14 26L13 26L13 27L14 27L14 26L16 26L16 29L17 29L17 27L18 27L18 25L17 25L17 26L16 26L16 25L15 25L15 22L14 22L14 21L13 21L13 20L12 20L12 19L11 19L11 20L12 20L12 21L10 21L10 20L9 20L9 19L10 19L10 18L12 18L12 16L14 16L14 18L13 18L13 19L14 19L14 18L15 18L15 15L16 15L16 16L18 16L18 17L17 17L17 18L16 18L16 20L17 20L17 22L16 22L16 24L17 24L17 23L18 23L18 22L19 22L19 21L18 21L18 20L17 20L17 19L18 19L18 17L19 17L19 18L20 18L20 25L19 25L19 29L20 29L20 28L22 28L22 27L21 27L21 26L22 26L22 25L24 25L24 26L23 26L23 28L24 28L24 29L26 29L26 28L27 28L27 29L29 29L29 26L28 26L28 28L27 28L27 27L26 27L26 28L25 28L25 27L24 27L24 26L26 26L26 25L25 25L25 24L29 24L29 22L28 22L28 21L29 21L29 18L28 18L28 17L29 17L29 15L27 15L27 16L26 16L26 14L25 14L25 12L23 12L23 8L21 8L21 6L20 6L20 5L21 5L21 3L20 3L20 2L21 2L21 0L18 0L18 3L19 3L19 4L20 4L20 5L18 5L18 7L19 7L19 6L20 6L20 8L21 8L21 9L18 9L18 8L17 8L17 6L16 6L16 8L15 8L15 6L14 6L14 5L15 5L15 4L16 4L16 3L17 3L17 0L16 0L16 1L14 1L14 0L12 0L12 1L10 1L10 0ZM13 1L13 2L14 2L14 1ZM11 2L11 3L12 3L12 4L11 4L11 5L10 5L10 6L9 6L9 7L10 7L10 6L11 6L11 8L12 8L12 10L10 10L10 8L9 8L9 10L10 10L10 11L3 11L3 12L4 12L4 13L5 13L5 12L8 12L8 13L10 13L10 14L11 14L11 13L12 13L12 12L13 12L13 13L14 13L14 14L13 14L13 15L14 15L14 14L15 14L15 13L16 13L16 14L17 14L17 12L18 12L18 15L19 15L19 17L21 17L21 16L22 16L22 15L19 15L19 14L20 14L20 13L21 13L21 14L22 14L22 13L23 13L23 12L20 12L20 11L16 11L16 10L17 10L17 9L16 9L16 10L14 10L14 8L12 8L12 6L13 6L13 7L14 7L14 6L13 6L13 5L14 5L14 4L13 4L13 3L12 3L12 2ZM15 2L15 3L16 3L16 2ZM26 8L26 9L27 9L27 11L28 11L28 12L26 12L26 13L27 13L27 14L28 14L28 13L29 13L29 10L28 10L28 9L27 9L27 8ZM4 9L4 10L7 10L7 9ZM24 9L24 10L25 10L25 11L26 11L26 10L25 10L25 9ZM13 10L13 11L14 11L14 10ZM11 11L11 12L12 12L12 11ZM15 11L15 12L16 12L16 11ZM0 14L0 16L1 16L1 17L2 17L2 16L3 16L3 15L1 15L1 14ZM23 14L23 17L22 17L22 18L23 18L23 20L25 20L25 18L26 18L26 23L27 23L27 21L28 21L28 20L27 20L27 19L28 19L28 18L27 18L27 17L26 17L26 16L25 16L25 14ZM9 15L9 16L7 16L7 17L6 17L6 18L8 18L8 19L6 19L6 20L8 20L8 19L9 19L9 18L10 18L10 17L9 17L9 16L10 16L10 15ZM11 15L11 16L12 16L12 15ZM24 16L24 18L25 18L25 16ZM8 17L8 18L9 18L9 17ZM3 19L3 20L4 20L4 19ZM21 19L21 20L22 20L22 19ZM21 21L21 24L24 24L24 21ZM9 22L9 25L10 25L10 26L11 26L11 25L10 25L10 22ZM13 22L13 23L14 23L14 22ZM22 22L22 23L23 23L23 22ZM11 23L11 24L12 24L12 23ZM0 0L7 0L7 7L0 7ZM1 1L1 6L6 6L6 1ZM2 2L5 2L5 5L2 5ZM22 0L29 0L29 7L22 7ZM23 1L23 6L28 6L28 1ZM24 2L27 2L27 5L24 5ZM0 22L7 22L7 29L0 29ZM1 23L1 28L6 28L6 23ZM2 24L5 24L5 27L2 27Z"
        fill="url(#g1)" />
    </g>
  </g>
</svg>
